<?xml version="1.0" encoding="UTF-8"?>
<!DOCTYPE svg PUBLIC "-//W3C//DTD SVG 1.1//EN" "http://www.w3.org/Graphics/SVG/1.1/DTD/svg11.dtd">
<!-- Creator: CorelDRAW 2021 (64-Bit) -->
<svg xmlns="http://www.w3.org/2000/svg" xml:space="preserve" width="143mm" height="143mm" version="1.1" style="shape-rendering:geometricPrecision; text-rendering:geometricPrecision; image-rendering:optimizeQuality; fill-rule:evenodd; clip-rule:evenodd"
viewBox="0 0 14300 14300"
 xmlns:xlink="http://www.w3.org/1999/xlink"
 xmlns:xodm="http://www.corel.com/coreldraw/odm/2003">
 <defs>
  <style type="text/css">
   <![CDATA[
    .str0 {stroke:#6F7A87;stroke-width:100;stroke-linecap:round;stroke-linejoin:round;stroke-miterlimit:22.9256}
    .str1 {stroke:#CB7D31;stroke-width:75;stroke-linecap:round;stroke-linejoin:round;stroke-miterlimit:22.9256}
    .fil0 {fill:#6F7A87}
    .fil1 {fill:#CB7D31}
    .fil2 {fill:#CB7D31;fill-rule:nonzero}
   ]]>
  </style>
 </defs>
 <g id="图层_x0020_1">
  <metadata id="CorelCorpID_0Corel-Layer"/>
  <path class="fil0 str0" d="M1556.06 3392.47c-341.16,-56.12 -652.28,-217.4 -910.95,-488.39 -625.56,-655.36 -609.77,-1685.73 35.24,-2301.42 645.03,-615.69 1675.03,-583.55 2300.57,71.81 240.56,252.02 390.3,572.37 441.87,890.4l3420.1 3561.88c213.92,-49.58 437.53,-72.45 666.98,-65 1417.72,46.1 2520.59,1232.66 2463.35,2650.27 -15.14,374.95 -111.13,731.24 -268.62,1047.66l-1709.98 -1810.51 -1310.64 -109.43 16.8 1344.44 1732.81 1791.41c-344.81,153.03 -729.93,232.82 -1131.03,219.77 -1417.7,-46.09 -2520.59,-1232.65 -2463.35,-2650.24 8.2,-202.92 41.7,-408.09 93.87,-595.94l-3377.02 -3556.71zm2546.2 76.15c408.98,124.3 765.23,488.43 796.41,914.32 101.12,435.34 385.7,790.89 705.92,521.27 368.62,-313.4 -214.92,-428.24 -431.73,-791.41 -117.32,-196.5 -262.23,-449.96 -515.42,-714.83 -198.4,-207.56 -317.94,-385.98 -781.7,-567.19 -253.23,-98.95 -685.91,-74.58 -899.47,158.34 -337.62,368.21 -225.86,857.83 -21.71,1192.93 295.58,485.16 524.04,786.05 902.04,964.93 414.55,145.13 146.71,270.76 429.26,570.06 206.3,153.55 291.57,54.3 505.69,-104.83 470.1,-349.38 280.2,-422.83 199.91,-507.09 -80.29,-84.27 -282.68,-313.52 -282.68,-313.52 0,0 0,-0.01 -121.22,-207.67 -88.42,-151.47 -38.14,-279.2 -210.24,-396.5 -87.05,-34.12 -235.38,-11.77 -304.62,92.63 -125.62,189.42 -25.56,330.89 326.54,476.43 151.26,103.44 -9.87,372.56 -258.09,279.07 -332.3,-125.16 -804.54,-517.03 -791.77,-1028.9 9.34,-374.17 365.9,-655.65 752.88,-538.04zm-2287.41 -2267.98c339.01,0 613.83,274.82 613.83,613.83 0,339.01 -274.82,613.83 -613.83,613.83 -339.01,0 -613.83,-274.82 -613.83,-613.83 0,-339.01 274.82,-613.83 613.83,-613.83z"/>
  <path class="fil1 str1" d="M6616.86 3626.68c645.89,-113.54 1374.44,-107.43 2039.3,118.05 2113.05,716.63 3245.1,3010.57 2528.47,5123.64 -716.63,2113.06 -3010.57,3245.09 -5123.63,2528.46 -2002.29,-679.06 -3139.73,-2707.22 -2642.04,-4722.9l-1795.3 -1843.79c-37.64,44.7 -43.88,68.89 -87.97,141.09 -116.09,190.1 -210.44,279.06 253.68,639.1 252.68,196 368.49,364.43 295.83,748.8 -49.26,298.09 -210.64,430.57 -568.12,501.54 -484.54,96.18 -519.37,112.32 -521.13,466.77 -1.1,222.75 -95.46,336.25 467.37,504.36 306.39,91.54 507.92,179.74 546.26,591.43 58.73,288.44 -40.92,477.58 -348.65,672.86 -417.09,264.68 -443.75,292.3 -317.4,623.47 79.41,208.12 32.42,348.02 617.98,301.53 318.76,-25.29 593.91,58.55 722.98,354.24 125.2,244.2 134.32,460.16 -82.11,753.37 -293.36,397.44 -308.27,432.82 -70.84,696.02 149.21,165.39 155.91,312.83 685.18,58.01 288.1,-138.71 579.48,-127.78 802.12,69.24 226.39,195.66 291.42,380.59 195.48,732.18 -130.03,476.55 -131.15,514.94 185.31,674.63 198.88,100.34 258.36,235.41 659.88,-193.35 218.57,-233.39 424.73,-352.49 773,-225.1 299.21,91.2 409.2,249.65 446.7,612.16 50.84,491.37 63.67,527.56 416.45,562.18 221.68,21.76 325.94,126.23 545.52,-418.59 119.53,-296.58 314.62,-481.46 639.52,-489.08 284.16,-22.02 471.74,85.02 637.65,409.54 224.87,439.82 249.88,468.95 591.35,373.83 214.59,-59.76 349.53,0 357.54,-587.35 4.37,-319.75 138.14,-575.95 419.74,-687.02 259.6,-125.66 470.62,-91.07 742.51,151.61 368.54,328.96 402.39,347.07 686.45,135.07 178.52,-133.24 325.95,-126.24 121.31,-676.85 -111.42,-299.74 -90.14,-569.66 143.29,-792.24 238.21,-215.44 405.97,-254.9 747.16,-126.77 462.46,173.66 500.56,178.33 688.92,-121.95 118.33,-188.71 258.34,-235.43 -131.34,-674.97 -212.13,-239.27 -284.53,-498.88 -152.48,-790.53 93.94,-247 286.52,-384.3 650.95,-388.03 493.98,-5.07 531.18,-14.48 598.37,-362.51 42.22,-218.73 155.92,-312.85 -366.23,-581.99 -284.2,-146.53 -426.43,-320.62 -427.66,-682.11 7.66,-240.01 128.4,-461.86 466.9,-596.94 458.79,-183.11 490.08,-205.33 427.06,-554.14 -39.63,-219.2 32.4,-348.03 -551.67,-410.46 -317.96,-34 -559.57,-165.32 -645.16,-481.62 -110.54,-268.17 -47.05,-477.06 219.81,-725.28 361.71,-336.43 382.89,-368.45 198.12,-670.97 -116.11,-190.09 -95.47,-336.23 -662.67,-183.54 -308.76,83.14 -498.63,91.43 -757.9,-189.43 -207.97,-184.85 -233.78,-454.56 -74.59,-782.39 215.78,-444.36 223.99,-481.85 -57.56,-697.25 -176.93,-135.32 -210.44,-279.05 -684.23,68.18 -257.91,189.05 -406.34,270.67 -746.35,104.21 -245.48,-97.9 -410.99,-346.6 -380.92,-709.82 40.76,-492.28 50.85,-514.36 -289.54,-613.28 -213.88,-62.15 -325.35,-203.71 -640.77,291.79 -171.7,269.74 -301.17,336.21 -651.9,325.85 -365.33,11.26 -503.48,-131.16 -606.6,-480.71 -139.78,-473.78 -159.01,-507.04 -512.18,-476.6 -221.91,19.13 -343.5,-64.53 -459.81,511.24 -63.34,313.44 -189.21,457.72 -491.27,538.35 -257.59,84.56 -537.94,65.47 -760.92,-222.83 -302.2,-390.75 -332.17,-414.75 -650.2,-258.23 -56.38,27.76 -108.31,44.99 -151.52,68.42l1892.5 1967.4z"/>
  <path class="fil2" d="M8505.29 3062.68c-91.86,34.03 -190.73,42.35 -296.61,24.95 -121.64,-19.99 -213.42,-74.49 -275.12,-163.67 -61.71,-89.17 -82.06,-198.2 -60.94,-326.7 21.35,-129.98 80.07,-230.01 175.99,-300.32 95.88,-70.13 208.24,-94.51 336.74,-73.4 90.86,14.93 165.44,42.04 223.72,81.33l-19.29 117.37c-60.32,-53.52 -137.14,-87.85 -230.22,-103.16 -91.6,-15.05 -172.22,3.89 -241.86,56.81 -69.82,52.89 -113.04,130.53 -129.9,233.07 -17.31,105.32 -3.36,191.98 41.72,259.55 45.06,67.58 114.01,109.2 207.09,124.49 64.16,10.55 120.72,7.09 169.64,-10.2l37.39 -227.52 -182.63 -30.02 15.81 -96.23 291.86 47.97 -63.39 385.68zm785.21 14.42l-405.46 -130.63c-18.16,62.45 -16.72,115.61 4.57,159.8 21.36,44 60.85,75.27 118.43,93.82 64.94,20.92 131.17,19.37 198.73,-4.67l-29.5 91.58c-62.62,19.7 -135.99,15.81 -220.23,-11.34 -83.88,-27.02 -140.64,-74.52 -170.56,-142.81 -29.92,-68.27 -29.61,-149.5 0.75,-243.76 28.65,-88.89 77.99,-153.76 148.05,-194.75 70.06,-41 143.37,-49.16 219.91,-24.49 75.85,24.43 127.21,67.83 154.1,130.2 26.84,62.54 26.17,137.54 -2.07,225.18l-16.72 51.87zm-76.15 -115.35c16.53,-52.53 17.21,-96.93 1.92,-133.44 -15.27,-36.5 -44.95,-62.05 -89.31,-76.35 -40.96,-13.19 -81.08,-9.35 -120.75,11.44 -39.67,20.77 -71.23,54.43 -94.66,100.78l302.8 97.57zm292.59 187.45c48.74,-87.93 111.76,-143.87 189.04,-167.42 77.4,-23.7 157.99,-12.12 242.13,34.53 79.88,44.28 129.08,103.56 147.39,177.52 18.22,74.12 3.52,154.5 -44.31,240.78 -46.65,84.14 -108.58,138.54 -185.68,163.28 -77.17,24.88 -156.4,14.7 -237.92,-30.49 -79.7,-44.19 -129.3,-104.33 -149.17,-180.87 -19.71,-76.46 -6.85,-155.48 38.52,-237.33zm97.95 50.42c-33.98,61.32 -45.32,118.2 -33.85,170.75 11.32,52.46 43.06,93.26 95.48,122.32 53.91,29.89 104.57,35.4 151.97,16.57 47.39,-18.85 89.04,-60.65 124.76,-125.08 35.99,-64.92 49.46,-122.55 40.32,-172.73 -9.05,-50.35 -40.48,-90.55 -94.39,-120.43 -52.92,-29.34 -104.94,-34.32 -155.55,-15.11 -50.88,19.29 -93.76,60.6 -128.74,123.71zm519.92 502.8c19.48,64.13 54.33,115.17 104.31,153.14 66.86,50.83 116.98,54.46 150.3,10.63 14.21,-18.71 18.59,-39.69 13.15,-62.95 -5.47,-23.26 -24.05,-60.29 -56.17,-110.89 -37.34,-62.37 -55.93,-110.25 -55.94,-143.78 0.14,-33.41 11.5,-65.13 34.35,-95.2 32.64,-42.94 77.04,-63.47 133.07,-61.73 56.02,1.75 110.53,22.89 163.78,63.36 41.15,31.27 74.11,67.4 98.5,108.61l-62.99 82.88c-18.47,-50.86 -50.48,-93.83 -96.42,-128.74 -27.53,-20.92 -54.36,-31.88 -80.77,-32.83 -26.3,-1.11 -46.92,8 -61.81,27.6 -14.67,19.3 -19.91,38.92 -15.8,59.27 4.25,20.22 21.34,55.16 51.14,104.47 38.66,61.26 59.35,109.79 61.86,145.91 2.51,36.15 -8.15,70.05 -32.37,101.92 -33.76,44.44 -78.63,65.56 -134.42,63.52 -55.81,-2.04 -112.59,-25.16 -170.5,-69.16 -50.25,-38.19 -86.93,-80.93 -109.89,-128.36l66.62 -87.67zm953.18 -118.29c12.87,-13.95 28.66,-21.37 46.98,-22.11 18.58,-0.74 34.66,5.4 48.75,18.4 14.21,13.12 22.03,29.04 23.18,47.47 1,18.57 -4.98,35.05 -18.12,49.27 -12.98,14.08 -28.67,21.09 -47.14,21.43 -18.34,0.21 -34.83,-6.31 -49.04,-19.43 -14.36,-13.26 -21.91,-28.92 -22.76,-46.84 -0.73,-18.04 5.15,-34.1 18.15,-48.19zm-549.2 613.91l412.91 -447.41 79.27 73.15 -412.9 447.42 -79.28 -73.16zm460.71 471.69c-25.18,-8.97 -51.12,-28.38 -77.68,-58.06 -72.81,-81.36 -64.21,-162.18 25.84,-242.77l262.14 -234.57 -69.67 -77.86 66.37 -59.4 69.66 77.86 109.22 -97.74 97.03 57.41 -134.57 120.42 100.87 112.73 -66.36 59.39 -100.88 -112.72 -247.85 221.8c-29.82,26.69 -46.6,50.77 -50.46,72.39 -3.86,21.61 4.74,44.18 25.78,67.7 16.18,18.07 35.51,29.25 57.5,33.53l-66.94 59.89zm617.34 408.4l-235.5 -354.97c-53.13,37.5 -85.17,79.96 -96.07,127.77 -10.74,47.72 0.61,96.78 34.07,147.21 37.7,56.84 90.46,96.93 158.26,120.27l-80.16 53.19c-61.25,-23.64 -116.18,-72.44 -165.1,-146.19 -48.71,-73.44 -63.46,-145.97 -44.27,-218.01 19.18,-72.02 70.09,-135.34 152.6,-190.08 77.82,-51.63 156.84,-71.57 237.18,-59.93 80.33,11.65 142.73,50.99 187.19,118 44.05,66.4 57.13,132.36 39.26,197.88 -18.02,65.62 -65.32,123.83 -142.04,174.74l-45.42 30.12zm12.41 -137.65c45.67,-30.75 73.89,-65.04 84.71,-103.12 10.83,-38.07 3.56,-76.54 -22.2,-115.38 -23.79,-35.86 -57.56,-57.87 -101.53,-66.37 -43.97,-8.49 -89.63,-1.87 -136.85,19.76l175.87 265.11zm402.02 1973.58c-63.7,-74.42 -105.7,-164.3 -126.01,-269.66 -23.32,-121.04 -3.92,-226.01 58.4,-314.76 62.32,-88.74 157.58,-145.56 285.45,-170.19 129.35,-24.92 243.52,-4.44 342.67,61.25 98.97,65.71 160.71,162.7 185.34,290.57 17.42,90.41 17.78,169.76 1.09,238.03l-116.81 22.51c29.35,-75.13 35,-159.07 17.16,-251.71 -17.57,-91.14 -63.22,-160.23 -136.96,-207.27 -73.79,-47.22 -161.59,-60.91 -263.62,-41.26 -104.8,20.19 -181.29,63.26 -229.1,128.93 -47.82,65.66 -63.02,144.75 -45.17,237.38 12.3,63.83 35.11,115.7 68.26,155.63l226.41 -43.62 -35.02 -181.74 95.76 -18.46 55.96 290.43 -383.81 73.94zm261.08 742.13l-16.46 -425.68c-64.9,4.38 -114.33,23.98 -148.53,59.15 -33.99,35.18 -49.81,82.98 -47.47,143.44 2.63,68.16 26.82,129.85 72.59,185.06l-96.14 3.71c-40,-52.05 -61.52,-122.29 -64.93,-210.74 -3.42,-88.06 21.72,-157.68 75.58,-209.21 53.85,-51.54 130.27,-79.13 229.23,-82.96 93.31,-3.61 171.17,20.46 233.72,72.21 62.56,51.72 95.37,117.79 98.49,198.14 3.07,79.63 -20.06,142.77 -69.41,189.43 -49.53,46.67 -120.2,71.78 -212.21,75.34l-54.46 2.11zm82.21 -111.12c55,-2.5 96.95,-17.1 126,-43.99 29.03,-26.88 42.84,-63.53 41.05,-110.1 -1.66,-43 -19.05,-79.36 -52.19,-109.48 -33.13,-30.14 -75.58,-48.23 -127.16,-54.32l12.3 317.89zm-76.74 325.32c99.89,11.32 175.71,48.08 227.08,110.44 51.56,62.4 71.75,141.27 60.92,236.87 -10.28,90.74 -46.18,158.92 -107.48,204.17 -61.47,45.24 -141.34,62.47 -239.36,51.37 -95.61,-10.83 -169.58,-47.2 -221.98,-108.93 -52.57,-61.74 -73.53,-138.81 -63.04,-231.43 10.26,-90.55 46.8,-159.41 109.88,-207.1 63.07,-47.52 140.99,-65.93 233.98,-55.39zm-9.04 109.79c-69.65,-7.89 -126.54,3.45 -170.67,34.19 -44.12,30.55 -69.65,75.51 -76.39,135.07 -6.94,61.25 7.38,110.15 42.95,146.71 35.57,36.56 90.14,59 163.34,67.29 73.75,8.36 132.15,-1.3 174.99,-28.96 43.04,-27.66 68.12,-72.1 75.06,-133.34 6.81,-60.12 -8.53,-110.08 -45.66,-149.46 -37.31,-39.6 -91.92,-63.37 -163.62,-71.5zm-285.1 669.98c-52.02,42.26 -86.1,93.82 -102.38,154.43 -21.78,81.12 -6.18,128.9 46.98,143.17 22.68,6.09 43.76,2.21 63.25,-11.62 19.47,-13.85 46.73,-45.04 81.44,-93.91 43.62,-58.13 80.92,-93.44 111.96,-106.12 30.99,-12.5 64.65,-13.96 101.13,-4.17 52.08,13.98 87.88,47.32 107.43,99.86 19.56,52.53 20.6,110.98 3.25,175.59 -13.4,49.91 -34.39,94.07 -63.32,132.23l-100.54 -26.98c40.1,-36.34 67.78,-82.21 82.74,-137.93 8.97,-33.39 8.97,-62.38 -0.12,-87.2 -8.92,-24.76 -25.14,-40.4 -48.92,-46.79 -23.42,-6.29 -43.56,-3.71 -60.85,7.78 -17.11,11.56 -43,40.6 -77.39,86.82 -42.1,58.94 -79.22,96.46 -111.71,112.43 -32.52,15.98 -67.94,18.93 -106.6,8.55 -53.9,-14.48 -90.41,-48.02 -109.61,-100.45 -19.19,-52.44 -19.27,-113.75 -0.41,-183.98 16.38,-60.98 42.08,-111.09 77.32,-150.27l106.35 28.56zm443.69 874.07c17.4,7.56 29.62,20.02 36.35,37.07 6.83,17.3 6.32,34.51 -1.3,52.09 -7.71,17.74 -20.15,30.37 -37.18,37.53 -17.21,7.07 -34.73,6.86 -52.49,-0.86 -17.58,-7.63 -29.36,-20.12 -35.77,-37.44 -6.23,-17.26 -5.52,-34.97 2.19,-52.72 7.77,-17.92 20.08,-30.2 36.71,-36.93 16.8,-6.63 33.9,-6.38 51.49,1.26zm-760.63 -316.15l558.5 242.37 -42.94 98.95 -558.5 -242.37 42.94 -98.95zm-284.7 594.76c0.2,-26.73 10.02,-57.61 29.33,-92.46 52.94,-95.48 132.11,-113.9 237.78,-55.32l307.67 170.55 50.65 -91.38 77.89 43.19 -50.64 91.37 128.19 71.05 -22.37 110.5 -157.94 -87.54 -73.33 132.29 -77.89 -43.18 73.32 -132.29 -290.9 -161.26c-35,-19.4 -63.26,-27.34 -84.94,-23.88 -21.68,3.45 -40.17,18.98 -55.48,46.59 -11.74,21.2 -15.97,43.14 -12.78,65.31l-78.56 -43.54zm-152.99 721.5l241.29 -351.07c-54.64,-35.28 -106,-49.14 -154.43,-41.38 -48.27,7.87 -89.53,36.74 -123.81,86.61 -38.63,56.21 -56.12,120.12 -52.43,191.73l-79.29 -54.49c-0.95,-65.64 23.8,-134.82 73.93,-207.76 49.92,-72.63 111.68,-113.4 185.68,-122.52 73.97,-9.11 151.71,14.45 233.33,70.54 76.96,52.9 124.98,118.74 144.19,197.61 19.22,78.87 6.04,151.45 -39.51,217.73 -45.14,65.66 -101.43,102.44 -168.88,110.35 -67.6,7.8 -139.27,-14.33 -215.15,-66.48l-44.92 -30.87zm132.33 -39.93c45.58,30.89 87.93,44.25 127.3,40.06 39.35,-4.18 72.33,-25.3 98.73,-63.7 24.37,-35.46 32.18,-75.01 23.62,-118.97 -8.54,-43.96 -31.75,-83.85 -69.46,-119.56l-180.19 262.17zm-1704.94 1085.81c44.14,-87.46 110.91,-160.84 200.32,-220.16 102.73,-68.14 207.07,-90.68 312.97,-67.35 105.9,23.33 195.02,89.35 267.01,197.87 72.82,109.76 97.9,223.01 75.48,339.81 -22.52,116.64 -88.24,210.98 -196.76,282.97 -76.72,50.9 -149.81,81.79 -219.25,92.68l-65.76 -99.12c80.63,-1.85 160.28,-28.97 238.89,-81.12 77.34,-51.3 123.52,-120.06 138.52,-206.23 15.15,-86.28 -6.03,-172.58 -63.46,-259.17 -59.01,-88.94 -128.21,-142.93 -207.23,-161.76 -79.02,-18.83 -157.85,-2.4 -236.46,49.75 -54.19,35.95 -93.26,76.98 -117.33,122.95l127.46 192.13 154.24 -102.33 53.91 81.27 -246.48 163.51 -216.07 -325.7zm-613.25 496.42l393.96 -162.05c-26.45,-59.41 -61.88,-99.08 -106.67,-119.07 -44.72,-19.8 -95.06,-18.18 -151.02,4.83 -63.08,25.94 -112.66,69.9 -148.73,131.89l-36.59 -88.98c35.08,-55.49 93.63,-99.88 175.48,-133.55 81.5,-33.52 155.5,-33.9 222.45,-1.08 66.92,32.81 119.14,95.04 156.82,186.63 35.52,86.37 39.73,167.75 12.7,244.3 -27.03,76.54 -77.74,130.11 -152.11,160.7 -73.69,30.31 -140.94,30.33 -201.74,0.08 -60.87,-30.43 -108.79,-88.13 -143.81,-173.29l-20.74 -50.41zm132.64 38.92c21.28,50.77 49.43,85.12 84.69,103.13 35.24,18.01 74.4,18.37 117.5,0.63 39.79,-16.37 67.95,-45.21 84.82,-86.69 16.88,-41.48 19.24,-87.57 7.2,-138.09l-294.21 121.02zm-329.99 43.71c23.96,97.64 15.72,181.51 -25,251.28 -40.68,69.98 -107.7,116.22 -201.13,139.15 -88.69,21.77 -165.09,11.69 -228.75,-30.14 -63.73,-42.02 -107.54,-110.98 -131.06,-206.79 -22.93,-93.44 -14.43,-175.44 25.35,-245.97 39.72,-70.69 104.77,-117.03 195.3,-139.25 88.5,-21.72 165.75,-11.28 232.33,31.39 66.41,42.72 110.65,109.45 132.96,200.33zm-106.14 29.53c-16.71,-68.08 -47.03,-117.51 -91.15,-148.27 -43.93,-30.83 -94.95,-39.2 -153.17,-24.92 -59.85,14.7 -100.77,45.06 -122.77,91.08 -21.97,46.04 -24.14,105 -6.57,176.55 17.69,72.08 46.96,123.52 87.74,154.13 40.85,30.81 91.22,38.96 151.09,24.27 58.76,-14.43 100.32,-46.11 124.41,-94.59 24.22,-48.71 27.63,-108.17 10.42,-178.25zm-726.95 -32.12c-57.6,-34.29 -117.74,-48.52 -180.24,-42.93 -83.67,7.49 -123.15,38.57 -118.24,93.4 2.09,23.39 12.99,41.86 32.68,55.38 19.71,13.52 58.38,28.36 116.2,44.12 69.61,20.94 115.62,43.81 138.21,68.57 22.39,24.8 35.36,55.89 38.72,93.51 4.81,53.71 -14.16,98.8 -56.76,135.25 -42.57,36.44 -97.1,57.55 -163.72,63.52 -51.48,4.6 -100.17,0.1 -145.96,-13.93l-9.28 -103.67c47.92,25.13 100.52,35.32 157.99,30.19 34.43,-3.09 61.65,-13.06 81.81,-30.16 20.19,-16.89 29.28,-37.51 27.09,-62.04 -2.16,-24.14 -11.5,-42.16 -28.26,-54.44 -16.75,-12.08 -52.92,-26.39 -108.15,-42.77 -69.84,-19.22 -117.84,-41.15 -144.02,-66.16 -26.21,-25.02 -41.17,-57.26 -44.74,-97.13 -4.97,-55.58 13.95,-101.42 56.56,-137.5 42.62,-36.08 100.16,-57.25 172.59,-63.73 62.89,-5.63 118.78,1.25 167.7,20.84l9.82 109.68zm-629.84 721.41c-0.22,18.98 -6.99,35.06 -20.12,47.87 -13.3,12.99 -29.36,19.18 -48.52,18.96 -19.35,-0.23 -35.81,-6.82 -48.99,-19.75 -13.19,-13.13 -19.77,-29.37 -19.54,-48.73 0.24,-19.16 7.19,-34.87 20.68,-47.48 13.49,-12.42 30.11,-18.62 49.46,-18.39 19.54,0.24 35.62,6.83 48.26,19.57 12.61,12.92 19,28.78 18.77,47.95zm-2.92 -823.71l-7.28 608.79 -107.86 -1.29 7.28 -608.79 107.86 1.29zm-657.56 -48.62c24.77,-10.06 57.05,-12.82 96.64,-8.33 108.48,12.28 155.83,78.34 142.24,198.41l-39.61 349.54 103.81 11.75 -10.02 88.51 -103.81 -11.77 -16.49 145.64 -110.64 21.7 20.33 -179.44 -150.3 -17.02 10.02 -88.5 150.3 17.03 37.44 -330.5c4.51,-39.77 1.02,-68.91 -10.49,-87.6 -11.49,-18.71 -32.94,-29.84 -64.3,-33.39 -24.09,-2.73 -45.96,1.79 -65.23,13.22l10.11 -89.25zm-732.67 99.22l411.41 110.47c15.06,-63.28 10.99,-116.31 -12.45,-159.39 -23.53,-42.89 -64.49,-72.17 -122.93,-87.86 -65.87,-17.7 -131.96,-12.87 -198.25,14.48l24.95 -92.92c61.57,-22.79 135.04,-22.51 220.52,0.44 85.11,22.85 144.14,67.49 177.4,134.22 33.25,66.71 36.96,147.86 11.27,243.51 -24.22,90.2 -70.28,157.4 -138.23,201.81 -67.96,44.41 -140.77,56.17 -218.45,35.32 -76.96,-20.66 -130.4,-61.48 -160.33,-122.44 -29.89,-61.13 -32.93,-136.07 -9.05,-225l14.14 -52.64zm81.75 111.45c-13.93,53.28 -12.41,97.66 4.66,133.37 17.06,35.71 47.97,59.77 92.97,71.85 41.56,11.16 81.46,5.34 120.05,-17.39 38.59,-22.7 68.46,-57.88 89.56,-105.33l-307.24 -82.5zm-1605.84 -1216.83c97.1,12.92 188.37,51.83 273.79,116.76 98.14,74.59 153.75,165.71 166.56,273.39 12.81,107.68 -20.24,213.56 -99.03,317.24 -79.7,104.87 -178.4,165.81 -296.08,183.05 -117.56,17.11 -228.26,-13.92 -331.94,-92.73 -73.31,-55.71 -126.52,-114.56 -159.65,-176.56l71.97 -94.69c28.27,75.52 80.08,141.82 155.2,198.9 73.89,56.16 154.01,77.15 240.31,62.97 86.46,-14.07 161,-62.45 223.87,-145.19 64.59,-84.96 92.81,-168.07 84.6,-248.89 -8.2,-80.82 -49.66,-149.86 -124.77,-206.94 -51.76,-39.34 -103.35,-62.75 -154.68,-70.36l-139.52 183.56 147.36 112 -59.01 77.65 -235.49 -178.97 236.51 -311.19zm-685.06 -398.47l284.07 317.44c47.2,-44.75 72.8,-91.37 76.72,-140.27 3.76,-48.76 -14.53,-95.68 -54.88,-140.77 -45.49,-50.82 -103.45,-82.93 -173.91,-96.28l71.69 -64.15c64.02,14.58 125.38,54.99 184.4,120.94 58.77,65.68 83.79,135.33 75.15,209.38 -8.63,74.03 -49.9,144 -123.71,210.04 -69.59,62.28 -144.91,93.37 -226.09,93.4 -81.17,0.02 -148.58,-29.94 -202.2,-89.87 -53.14,-59.37 -75.57,-122.77 -67.31,-190.18 8.4,-67.53 46.85,-131.94 115.46,-193.33l40.61 -36.35zm7.51 138.01c-40.77,37 -63.78,74.98 -69.01,114.22 -5.24,39.23 7.47,76.26 38.56,110.99 28.69,32.07 65.27,49.01 110,51.08 44.74,2.09 88.98,-11.02 132.6,-39.22l-212.15 -237.07zm-160.68 -287.14c-83.78,55.58 -165.48,76.19 -244.92,61.46 -79.62,-14.61 -145.8,-62.03 -198.99,-142.2 -50.48,-76.11 -66.83,-151.39 -49,-225.47 17.99,-74.17 68.06,-138.74 150.28,-193.28 80.17,-53.18 160.21,-72.91 240.03,-59.34 79.96,13.47 145.58,59.01 197.11,136.69 50.37,75.93 66.68,152.17 49.05,229.26 -17.75,76.94 -65.58,141.15 -143.56,192.88zm-63.69 -89.89c58.42,-38.75 94.68,-84.01 108.71,-135.93 14.14,-51.78 4.77,-102.63 -28.37,-152.56 -34.07,-51.37 -76.48,-79.61 -127.24,-84.73 -50.75,-5.11 -106.96,12.8 -168.36,53.52 -61.85,41.03 -100.35,85.97 -115.37,134.71 -15.17,48.86 -5.8,99.02 28.27,150.38 33.45,50.42 77.33,78.82 131.09,85.09 54.04,6.33 111.14,-10.59 171.27,-50.48zm-224.53 -689.16c12.43,-65.86 5.17,-127.24 -21.53,-184.03 -35.74,-76.01 -78.48,-102.44 -128.3,-79.01 -21.25,10 -34.86,26.57 -40.81,49.71 -5.92,23.14 -6.59,64.57 -1.56,124.28 4.21,72.56 -1.47,123.62 -16.99,153.34 -15.6,29.55 -40.36,52.4 -74.53,68.48 -48.81,22.94 -97.67,20.59 -146.52,-6.91 -48.84,-27.49 -87.38,-71.46 -115.83,-131.99 -22,-46.78 -34.47,-94.06 -37.02,-141.87l94.2 -44.3c-7.17,53.64 1.3,106.54 25.85,158.75 14.72,31.29 33.42,53.43 56.4,66.51 22.8,13.16 45.28,14.63 67.56,4.15 21.94,-10.31 35.67,-25.28 41.45,-45.23 5.6,-19.87 6.63,-58.76 3.06,-116.26 -5.92,-72.2 -1.79,-124.8 12.72,-157.98 14.51,-33.2 39.66,-58.31 75.88,-75.34 50.5,-23.75 100.05,-21.7 148.56,5.93 48.51,27.66 88.15,74.44 119.08,140.25 26.87,57.13 39.59,112 37.98,164.66l-99.65 46.86zm-896.98 -340.67c-17.89,6.33 -35.31,5.53 -51.88,-2.35 -16.78,-8 -28.14,-20.92 -34.55,-38.99 -6.46,-18.23 -5.96,-35.96 1.62,-52.8 7.77,-16.91 20.74,-28.69 38.99,-35.16 18.06,-6.4 35.21,-5.3 51.7,3.01 16.32,8.38 27.87,21.83 34.33,40.07 6.53,18.42 5.9,35.78 -1.69,52.05 -7.77,16.29 -20.45,27.77 -38.52,34.17zm772.03 -287.17l-573.86 203.38 -36.02 -101.67 573.86 -203.38 36.02 101.67zm-183.95 -633.14c18.01,19.76 31.78,49.08 41.27,87.77 26.03,106.03 -19.56,173.33 -136.9,202.12l-341.63 83.86 24.9 101.46 -86.49 21.23 -24.91 -101.46 -142.35 34.94 -58.65 -96.29 175.37 -43.04 -36.05 -146.9 86.49 -21.23 36.06 146.9 323.02 -79.28c38.87,-9.55 65.01,-22.91 78.55,-40.18 13.58,-17.26 16.6,-41.23 9.07,-71.88 -5.78,-23.54 -17.59,-42.5 -34.98,-56.61l87.23 -21.41zm-349.5 -653.09l37.95 424.29c64.59,-7.66 112.98,-29.72 145.35,-66.58 32.18,-36.84 45.55,-85.39 40.17,-145.65 -6.09,-67.94 -33.37,-128.32 -81.87,-181.15l95.84 -8.57c42.58,49.96 67.63,119.03 75.5,207.19 7.87,87.78 -13.72,158.57 -64.91,212.77 -51.18,54.18 -126.1,85.61 -224.73,94.43 -93.03,8.32 -171.99,-11.78 -237.08,-60.29 -65.09,-48.51 -101.21,-112.82 -108.37,-192.92 -7.1,-79.37 12.8,-143.59 59.73,-192.69 47.1,-49.12 116.42,-77.77 208.13,-85.98l54.29 -4.85zm-76.49 115.13c-54.81,5.28 -95.96,21.98 -123.61,50.31 -27.65,28.31 -39.59,65.61 -35.43,112.02 3.83,42.86 23.03,78.31 57.65,106.71 34.61,28.42 77.91,44.36 129.73,47.82l-28.34 -316.86z"/>
 </g>
</svg>
